<svg width="459" height="186" viewBox="0 0 459 186" fill="none" xmlns="http://www.w3.org/2000/svg">
<path d="M0.5 20C0.5 8.95431 9.4543 0 20.5 0H438.5C449.546 0 458.5 8.95431 458.5 20V186H0.5V20Z" fill="#3D66CC"/>
<path d="M152.675 129.007C165.716 121.08 180.359 110.853 190.415 104.656C202.799 96.3659 209.967 91.9865 206.927 84.1902L248.5 186H168.892L152.675 129.007Z" fill="#345BBB"/>
<path d="M116.122 80.2563L162.151 49.9855C164.968 48.1328 168.508 47.3393 171.991 47.7795C175.474 48.2197 178.615 49.8576 180.724 52.3328L204.576 80.3313C206.684 82.8065 207.587 85.9163 207.086 88.9766C206.585 92.0369 204.721 94.797 201.904 96.6497L155.875 126.92C153.058 128.773 149.518 129.567 146.035 129.126C142.552 128.686 139.411 127.048 137.302 124.573L113.451 96.5747C111.342 94.0995 110.439 90.9897 110.94 87.9294C111.441 84.8691 113.305 82.109 116.122 80.2563ZM118.772 83.3673C117.002 84.5315 115.895 86.0849 115.486 87.8099L156.363 85.3421L170.579 51.5781C168.58 51.4365 166.572 51.9322 164.801 53.0965L118.772 83.3673ZM159.57 89.1063L115.543 91.7036C115.843 92.5743 116.329 93.4685 116.991 94.2462L140.843 122.245C142.249 123.895 144.343 124.987 146.665 125.28C148.987 125.574 151.347 125.045 153.225 123.81L199.254 93.5387C201.132 92.3036 202.375 90.4636 202.709 88.4234C203.043 86.3832 202.441 84.31 201.035 82.6598L177.183 54.6613C176.521 53.8836 175.681 53.2223 174.815 52.7241L159.57 89.1063Z" fill="#F8F8F8"/>
<ellipse cx="140.599" cy="97.1409" rx="2.94845" ry="2.59058" fill="#F8F8F8"/>
<ellipse cx="172.442" cy="74.8619" rx="2.94845" ry="2.59058" fill="#F8F8F8"/>
<path d="M152.392 107.503C169.683 106.454 175.319 102.334 179.518 89.8873" stroke="white" stroke-width="3" stroke-linecap="round"/>
<path d="M111.397 92.7391C117.964 101.692 125.362 110.149 130.562 116.831C137.867 126.218 142.845 131.923 152.675 129.007L168.597 185.741H142.061L111.397 92.7391Z" fill="#466FD3"/>
</svg>
